<svg id="svg_spray_chart" width="552.5" height="425" fill="#FFFFFF"><rect height="100%" width="100%" fill="#FFFFFF"></rect><svg xmlns="http://www.w3.org/2000/svg" xmlns:xlink="http://www.w3.org/1999/xlink" version="1.1" id="Layer_1" x="-63.75" y="0" viewBox="0 0 250 250" style="enable-background:new 0 0 250 250;" xml:space="preserve">
<style type="text/css">
  .st0{fill:#5B5B5B;}
  .st1{fill:#7F7F7F;}
  .st2{fill:#FFFFFF;}
  .st3{fill:#A98C48;}
  .st4{fill:#68836A;}
  .st5{fill:#AA8D49;stroke:#AA8D49;}
  .st6{fill:none;stroke:#FFFFFF;}
  .st7{font-family:'ArialMT';}
  .st8{font-size:11px;}
  .st9{fill:#A88B49;}
  .st10{fill:none;stroke:#FFFFFF;stroke-width:2;}
  .st11{fill:#FFFFFF;stroke:#FFFFFF;}
  .st12{fill:none;stroke:#FFFFFF;stroke-width:1.5;}
</style>
<g id="TOR_-_14">
  
  <path class="st3" d="M213.8,119.4c1.9-7.8,6.1-13,6-13.5c-10.9-32.8-46-75.1-95.1-75.1c-49.1,0-85.3,40.2-96.9,75.1   c-0.1,0.3,2.9,5.2,4,10.2c4,18.2,13.1,59.3,30,81.3l-2.8,5.9L87.9,226l6.7-4.5c0,0,17.2,4.5,31.7,4c15.3-0.6,34-5.4,34-5.4l7.8,6   l22-24.1l-4.2-4.4C201.3,177.3,209,139.6,213.8,119.4z"></path>
  <path class="st4" d="M209.9,119.9c1.7-7.2,4-12,3.9-12.4c-10.2-30.7-45.5-72-88.7-72c-43.2,0-80.5,39.3-91.3,72   c-0.1,0.3,1.9,3.1,3,7.9c3.8,17.2,13.1,57.4,28.9,77.8c21.1,27.4,27.2,25.8,57.2,26.7v-0.2h1.9v0.2c30-0.9,36.1,0.7,57.2-26.7   C196.5,174.3,205.5,138.8,209.9,119.9z"></path>
  <g id="Grass_Sand_2__x28_TOR_x29_">
    <g>
      <path class="st5" d="M101.7,170l-6.1,6.1l6.1,6.1C105.1,178.8,105.1,173.4,101.7,170z"></path>
    </g>
    <g>
      <path class="st5" d="M148.6,182.2l6.1-6.1l-6.1-6.1C145.3,173.4,145.3,178.8,148.6,182.2z"></path>
    </g>
    <g>
      <path class="st5" d="M131.2,152.6l-6.1-6.1l-6.1,6.1C122.4,156,127.9,156,131.2,152.6z"></path>
    </g>
    <circle class="st5" cx="125.2" cy="203.4" r="5.6"></circle>

      <rect x="105.8" y="156.7" transform="matrix(0.7071 -0.7071 0.7071 0.7071 -87.8455 140.0735)" class="st6" width="38.7" height="38.7"></rect>
    <path class="st6" d="M164,164.6c-5.4-16.3-20.7-28.1-38.8-28.1c-18.1,0-33.5,11.8-38.8,28.1"></path>
  </g>
  <text transform="matrix(1 0 0 1 6.5981 98.6563)" class="st4 st7 st8">328</text>
  <text transform="matrix(1 0 0 1 222.0562 98.6563)" class="st4 st7 st8">328</text>
  <text transform="matrix(1 0 0 1 183.7515 46.9463)" class="st4 st7 st8">375</text>
  <text transform="matrix(1 0 0 1 116.1392 27.0791)" class="st4 st7 st8">400</text>
  <text transform="matrix(1 0 0 1 45.8125 47.1807)" class="st4 st7 st8">375</text>
</g>
<g id="Pitchers_mound">

    <ellipse transform="matrix(0.7071 -0.7071 0.7071 0.7071 -88.7986 140.5403)" class="st9" cx="125.2" cy="177.5" rx="3.8" ry="3.8"></ellipse>
</g>
<g id="Bases_and_chalk_lines-ALL">
  <g>
    <path class="st10" d="M15.6,93.6"></path>
    <path class="st10" d="M125.2,204.3"></path>
    <path class="st10" d="M232,94.3"></path>
  </g>
  <rect x="123.2" y="176.7" class="st11" width="4" height="1.6"></rect>
  <rect x="98.4" y="174.6" transform="matrix(0.7073 -0.7069 0.7069 0.7073 -95.2212 122.1912)" class="st11" width="3" height="3"></rect>

    <rect x="148.9" y="174.6" transform="matrix(0.7073 -0.7069 0.7069 0.7073 -80.4458 157.8735)" class="st11" width="3" height="3"></rect>
  <rect x="123.7" y="149.3" transform="matrix(0.707 -0.7073 0.7073 0.707 -70.0001 132.7314)" class="st11" width="3" height="3"></rect>
  <polygon class="st11" points="126.7,201.9 125.2,203.4 123.7,201.9 123.7,200.4 126.7,200.4  "></polygon>
  <polyline class="st12" points="234.6,94.3 125.2,203.5 17.9,96.2  "></polyline>
</g>
</svg><circle cx="243.56666666666666" cy="234.8" r="3.55" style="stroke: rgb(0, 0, 0); fill: rgb(161, 182, 41); stroke-width: 1;"></circle><circle cx="263.76666666666665" cy="268.1333333333333" r="3.55" style="stroke: rgb(0, 0, 0); fill: rgb(183, 20, 132); stroke-width: 1;"></circle><circle cx="261.75000000000006" cy="266.1166666666667" r="3.55" style="stroke: rgb(0, 0, 0); fill: rgb(183, 20, 132); stroke-width: 1;"></circle><circle cx="222.35" cy="186.3166666666667" r="3.55" style="stroke: rgb(0, 0, 0); fill: rgb(196, 230, 170); stroke-width: 1;"></circle><circle cx="178.91666666666666" cy="255" r="3.55" style="stroke: rgb(0, 0, 0); fill: rgb(73, 69, 172); stroke-width: 1;"></circle><circle cx="296.08333333333337" cy="185.31666666666666" r="3.55" style="stroke: rgb(0, 0, 0); fill: rgb(196, 230, 170); stroke-width: 1;"></circle><circle cx="96.1" cy="209.55" r="3.55" style="stroke: rgb(0, 0, 0); fill: rgb(80, 95, 57); stroke-width: 1;"></circle><circle cx="285.98333333333335" cy="187.33333333333334" r="3.55" style="stroke: rgb(0, 0, 0); fill: rgb(161, 182, 41); stroke-width: 1;"></circle><circle cx="285.98333333333335" cy="163.08333333333334" r="3.55" style="stroke: rgb(0, 0, 0); fill: rgb(80, 95, 57); stroke-width: 1;"></circle><circle cx="191.03333333333336" cy="299.45" r="3.55" style="stroke: rgb(0, 0, 0); fill: rgb(222, 30, 36); stroke-width: 1;"></circle><circle cx="90.03333333333335" cy="164.1" r="3.55" style="stroke: rgb(0, 0, 0); fill: rgb(115, 176, 162); stroke-width: 1;"></circle><circle cx="137.51666666666668" cy="203.48333333333335" r="3.55" style="stroke: rgb(0, 0, 0); fill: rgb(196, 230, 170); stroke-width: 1;"></circle><circle cx="281.95" cy="173.18333333333334" r="3.55" style="stroke: rgb(0, 0, 0); fill: rgb(196, 230, 170); stroke-width: 1;"></circle><circle cx="282.95000000000005" cy="207.53333333333333" r="3.55" style="stroke: rgb(0, 0, 0); fill: rgb(196, 230, 170); stroke-width: 1; cursor: pointer;"></circle><circle cx="145.58333333333334" cy="182.28333333333336" r="3.55" style="stroke: rgb(0, 0, 0); fill: rgb(161, 182, 41); stroke-width: 1; cursor: pointer;"></circle><circle cx="157.71666666666667" cy="132.78333333333333" r="3.55" style="stroke: rgb(0, 0, 0); fill: rgb(80, 95, 57); stroke-width: 1; cursor: pointer;"></circle><circle cx="206.18333333333334" cy="303.48333333333335" r="3.55" style="stroke: rgb(0, 0, 0); fill: rgb(183, 20, 132); stroke-width: 1;"></circle><circle cx="256.70000000000005" cy="264.1" r="3.55" style="stroke: rgb(0, 0, 0); fill: rgb(183, 20, 132); stroke-width: 1;"></circle><circle cx="164.78333333333336" cy="281.26666666666665" r="3.55" style="stroke: rgb(0, 0, 0); fill: rgb(73, 69, 172); stroke-width: 1;"></circle><circle cx="181.03333333333336" cy="253.18333333333334" r="3.55" style="stroke: rgb(0, 0, 0); fill: rgb(222, 30, 36); stroke-width: 1;"></circle><circle cx="41.43333333333334" cy="121.8" r="3.55" style="stroke: rgb(0, 0, 0); fill: rgb(172, 38, 87); stroke-width: 1; cursor: pointer;"></circle><circle cx="243.65" cy="135.35" r="3.55" style="stroke: rgb(0, 0, 0); fill: rgb(80, 95, 57); stroke-width: 1;"></circle><circle cx="175.96666666666667" cy="284.55" r="3.55" style="stroke: rgb(0, 0, 0); fill: rgb(183, 20, 132); stroke-width: 1;"></circle><circle cx="165.81666666666666" cy="275.23333333333335" r="3.55" style="stroke: rgb(0, 0, 0); fill: rgb(183, 20, 132); stroke-width: 1;"></circle><circle cx="285.1" cy="128.56666666666666" r="3.55" style="stroke: rgb(0, 0, 0); fill: rgb(115, 176, 162); stroke-width: 1;"></circle><circle cx="257.18333333333334" cy="258.28333333333336" r="3.55" style="stroke: rgb(0, 0, 0); fill: rgb(34, 8, 242); stroke-width: 1; cursor: pointer;"></circle><circle cx="108.28333333333333" cy="153.15" r="3.55" style="stroke: rgb(0, 0, 0); fill: rgb(80, 95, 57); stroke-width: 1;"></circle><circle cx="231.80000000000004" cy="138.75" r="3.55" style="stroke: rgb(0, 0, 0); fill: rgb(196, 230, 170); stroke-width: 1;"></circle><circle cx="247.88333333333333" cy="268.45" r="3.55" style="stroke: rgb(0, 0, 0); fill: rgb(183, 20, 132); stroke-width: 1;"></circle><circle cx="82.9" cy="120.94999999999999" r="3.55" style="stroke: rgb(0, 0, 0); fill: rgb(196, 230, 170); stroke-width: 1; cursor: pointer;"></circle><circle cx="253.8" cy="139.60000000000002" r="3.55" style="stroke: rgb(0, 0, 0); fill: rgb(161, 182, 41); stroke-width: 1;"></circle><circle cx="120.11666666666666" cy="114.16666666666667" r="3.55" style="stroke: rgb(0, 0, 0); fill: rgb(115, 176, 162); stroke-width: 1;"></circle><circle cx="181.03333333333336" cy="261.6666666666667" r="3.55" style="stroke: rgb(0, 0, 0); fill: rgb(183, 20, 132); stroke-width: 1;"></circle><circle cx="167.5" cy="281.1666666666667" r="3.55" style="stroke: rgb(0, 0, 0); fill: rgb(183, 20, 132); stroke-width: 1;"></circle><circle cx="219.53333333333333" cy="94.3" r="3.55" style="stroke: rgb(0, 0, 0); fill: rgb(80, 95, 57); stroke-width: 1;"></circle><circle cx="48.833333333333336" cy="92.26666666666667" r="3.55" style="stroke: rgb(0, 0, 0); fill: rgb(172, 38, 87); stroke-width: 1; cursor: pointer;"></circle><circle cx="297.3" cy="193.28333333333333" r="3.55" style="stroke: rgb(0, 0, 0); fill: rgb(161, 182, 41); stroke-width: 1;"></circle><circle cx="102.36666666666667" cy="185.20000000000002" r="3.55" style="stroke: rgb(0, 0, 0); fill: rgb(80, 95, 57); stroke-width: 1;"></circle><circle cx="196.3" cy="325.6" r="3.55" style="stroke: rgb(0, 0, 0); fill: rgb(183, 20, 132); stroke-width: 1;"></circle><circle cx="256.9" cy="245.79999999999998" r="3.55" style="stroke: rgb(0, 0, 0); fill: rgb(183, 20, 132); stroke-width: 1;"></circle><circle cx="188.2166666666667" cy="276.1" r="3.55" style="stroke: rgb(0, 0, 0); fill: rgb(196, 230, 170); stroke-width: 1;"></circle><circle cx="222.56666666666666" cy="270.03333333333336" r="3.55" style="stroke: rgb(0, 0, 0); fill: rgb(196, 230, 170); stroke-width: 1;"></circle><circle cx="239.73333333333335" cy="261.9666666666667" r="3.55" style="stroke: rgb(0, 0, 0); fill: rgb(183, 20, 132); stroke-width: 1; cursor: pointer;"></circle><circle cx="311.45000000000005" cy="193.28333333333333" r="3.55" style="stroke: rgb(0, 0, 0); fill: rgb(196, 230, 170); stroke-width: 1;"></circle><circle cx="239.73333333333335" cy="267.0166666666667" r="3.55" style="stroke: rgb(0, 0, 0); fill: rgb(161, 182, 41); stroke-width: 1;"></circle><circle cx="159.95000000000002" cy="73.08333333333334" r="3.55" style="stroke: rgb(0, 0, 0); fill: rgb(115, 176, 162); stroke-width: 1; cursor: pointer;"></circle><circle cx="211.45000000000002" cy="57.93333333333333" r="3.55" style="stroke: rgb(0, 0, 0); fill: rgb(161, 182, 41); stroke-width: 1;"></circle><circle cx="221.55" cy="61.96666666666667" r="3.55" style="stroke: rgb(0, 0, 0); fill: rgb(161, 182, 41); stroke-width: 1;"></circle><circle cx="209.43333333333334" cy="308.4166666666667" r="3.55" style="stroke: rgb(0, 0, 0); fill: rgb(183, 20, 132); stroke-width: 1;"></circle><circle cx="195.3" cy="312.46666666666664" r="3.55" style="stroke: rgb(0, 0, 0); fill: rgb(183, 20, 132); stroke-width: 1;"></circle><circle cx="252.35" cy="142.98333333333335" r="3.55" style="stroke: rgb(0, 0, 0); fill: rgb(80, 95, 57); stroke-width: 1;"></circle><circle cx="114.50000000000001" cy="202.33333333333334" r="3.55" style="stroke: rgb(0, 0, 0); fill: rgb(196, 230, 170); stroke-width: 1;"></circle><circle cx="168.78333333333333" cy="281.1666666666667" r="3.55" style="stroke: rgb(0, 0, 0); fill: rgb(183, 20, 132); stroke-width: 1;"></circle><circle cx="217.01666666666668" cy="312.53333333333336" r="3.55" style="stroke: rgb(0, 0, 0); fill: rgb(240, 137, 168); stroke-width: 1;"></circle><circle cx="206.68333333333334" cy="322.70000000000005" r="3.55" style="stroke: rgb(0, 0, 0); fill: rgb(114, 44, 229); stroke-width: 1;"></circle><circle cx="202.38333333333335" cy="319.31666666666666" r="3.55" style="stroke: rgb(0, 0, 0); fill: rgb(183, 20, 132); stroke-width: 1; cursor: pointer;"></circle><circle cx="161.88333333333333" cy="169.26666666666668" r="3.55" style="stroke: rgb(0, 0, 0); fill: rgb(196, 230, 170); stroke-width: 1; cursor: pointer;"></circle><circle cx="171.36666666666667" cy="282.0166666666667" r="3.55" style="stroke: rgb(0, 0, 0); fill: rgb(34, 8, 242); stroke-width: 1;"></circle><circle cx="169.63333333333335" cy="271" r="3.55" style="stroke: rgb(0, 0, 0); fill: rgb(183, 20, 132); stroke-width: 1; cursor: pointer;"></circle><circle cx="150.68333333333334" cy="207.41666666666669" r="3.55" style="stroke: rgb(0, 0, 0); fill: rgb(80, 95, 57); stroke-width: 1;"></circle><circle cx="202.38333333333335" cy="195.55" r="3.55" style="stroke: rgb(0, 0, 0); fill: rgb(222, 30, 36); stroke-width: 1;"></circle><circle cx="258.3666666666667" cy="253.18333333333334" r="3.55" style="stroke: rgb(0, 0, 0); fill: rgb(196, 230, 170); stroke-width: 1;"></circle><circle cx="117.08333333333334" cy="125.18333333333334" r="3.55" style="stroke: rgb(0, 0, 0); fill: rgb(80, 95, 57); stroke-width: 1;"></circle><circle cx="178.25" cy="244.7166666666667" r="3.55" style="stroke: rgb(0, 0, 0); fill: rgb(183, 20, 132); stroke-width: 1;"></circle><circle cx="248.03333333333333" cy="259.96666666666664" r="3.55" style="stroke: rgb(0, 0, 0); fill: rgb(183, 20, 132); stroke-width: 1;"></circle><circle cx="224.78333333333336" cy="175.20000000000002" r="3.55" style="stroke: rgb(0, 0, 0); fill: rgb(80, 95, 57); stroke-width: 1;"></circle><circle cx="168.55" cy="227" r="3.55" style="stroke: rgb(0, 0, 0); fill: rgb(183, 20, 132); stroke-width: 1;"></circle><circle cx="206.66666666666669" cy="230.38333333333333" r="3.55" style="stroke: rgb(0, 0, 0); fill: rgb(183, 20, 132); stroke-width: 1;"></circle><circle cx="132.13333333333335" cy="138.0666666666667" r="3.55" style="stroke: rgb(0, 0, 0); fill: rgb(115, 176, 162); stroke-width: 1;"></circle><circle cx="213.43333333333334" cy="291.3666666666667" r="3.55" style="stroke: rgb(0, 0, 0); fill: rgb(183, 20, 132); stroke-width: 1;"></circle><circle cx="181.25" cy="229.53333333333333" r="3.55" style="stroke: rgb(0, 0, 0); fill: rgb(183, 20, 132); stroke-width: 1;"></circle><circle cx="147.38333333333335" cy="132.13333333333335" r="3.55" style="stroke: rgb(0, 0, 0); fill: rgb(80, 95, 57); stroke-width: 1;"></circle><circle cx="116.03333333333335" cy="76.23333333333333" r="3.55" style="stroke: rgb(0, 0, 0); fill: rgb(172, 38, 87); stroke-width: 1; cursor: pointer;"></circle><circle cx="199.88333333333335" cy="238.00000000000003" r="3.55" style="stroke: rgb(0, 0, 0); fill: rgb(183, 20, 132); stroke-width: 1;"></circle><circle cx="228.68333333333337" cy="230.38333333333333" r="3.55" style="stroke: rgb(0, 0, 0); fill: rgb(222, 30, 36); stroke-width: 1;"></circle><circle cx="216.83333333333334" cy="128.75" r="3.55" style="stroke: rgb(0, 0, 0); fill: rgb(196, 230, 170); stroke-width: 1;"></circle><circle cx="210.9" cy="138.0666666666667" r="3.55" style="stroke: rgb(0, 0, 0); fill: rgb(80, 95, 57); stroke-width: 1;"></circle><circle cx="196.50000000000003" cy="140.6" r="3.55" style="stroke: rgb(0, 0, 0); fill: rgb(161, 182, 41); stroke-width: 1;"></circle><circle cx="239.7" cy="348.1166666666667" r="3.55" style="stroke: rgb(0, 0, 0); fill: rgb(222, 30, 36); stroke-width: 1;"></circle><circle cx="218.5166666666667" cy="242.23333333333335" r="3.55" style="stroke: rgb(0, 0, 0); fill: rgb(183, 20, 132); stroke-width: 1;"></circle><circle cx="208.36666666666667" cy="65.21666666666667" r="3.55" style="stroke: rgb(0, 0, 0); fill: rgb(115, 176, 162); stroke-width: 1;"></circle><circle cx="196.50000000000003" cy="290.5166666666667" r="3.55" style="stroke: rgb(0, 0, 0); fill: rgb(183, 20, 132); stroke-width: 1;"></circle><circle cx="233.76666666666665" cy="249.01666666666668" r="3.55" style="stroke: rgb(0, 0, 0); fill: rgb(183, 20, 132); stroke-width: 1; cursor: pointer;"></circle><circle cx="209.8" cy="332.31666666666666" r="3.55" style="stroke: rgb(0, 0, 0); fill: rgb(73, 69, 172); stroke-width: 1;"></circle><circle cx="260.1166666666667" cy="278.90000000000003" r="3.55" style="stroke: rgb(0, 0, 0); fill: rgb(183, 20, 132); stroke-width: 1;"></circle><circle cx="263.53333333333336" cy="284" r="3.55" style="stroke: rgb(0, 0, 0); fill: rgb(183, 20, 132); stroke-width: 1;"></circle><circle cx="264.3833333333333" cy="280.6" r="3.55" style="stroke: rgb(0, 0, 0); fill: rgb(183, 20, 132); stroke-width: 1;"></circle><circle cx="264.3833333333333" cy="280.6" r="3.55" style="stroke: rgb(0, 0, 0); fill: rgb(183, 20, 132); stroke-width: 1;"></circle><circle cx="174.83333333333334" cy="256.8666666666667" r="3.55" style="stroke: rgb(0, 0, 0); fill: rgb(183, 20, 132); stroke-width: 1;"></circle><circle cx="168.01666666666668" cy="255.16666666666666" r="3.55" style="stroke: rgb(0, 0, 0); fill: rgb(183, 20, 132); stroke-width: 1;"></circle><circle cx="194.45000000000002" cy="253.4666666666667" r="3.55" style="stroke: rgb(0, 0, 0); fill: rgb(183, 20, 132); stroke-width: 1;"></circle><circle cx="180.8" cy="255.16666666666666" r="3.55" style="stroke: rgb(0, 0, 0); fill: rgb(183, 20, 132); stroke-width: 1;"></circle><circle cx="195.3" cy="254.3166666666667" r="3.55" style="stroke: rgb(0, 0, 0); fill: rgb(34, 8, 242); stroke-width: 1;"></circle><circle cx="197.86666666666667" cy="278.06666666666666" r="3.55" style="stroke: rgb(0, 0, 0); fill: rgb(161, 182, 41); stroke-width: 1;"></circle><circle cx="163.75" cy="278.06666666666666" r="3.55" style="stroke: rgb(0, 0, 0); fill: rgb(183, 20, 132); stroke-width: 1;"></circle><circle cx="174.83333333333334" cy="287.3833333333334" r="3.55" style="stroke: rgb(0, 0, 0); fill: rgb(183, 20, 132); stroke-width: 1;"></circle><circle cx="172.26666666666668" cy="273.81666666666666" r="3.55" style="stroke: rgb(0, 0, 0); fill: rgb(183, 20, 132); stroke-width: 1;"></circle><circle cx="194.45000000000002" cy="294.1666666666667" r="3.55" style="stroke: rgb(0, 0, 0); fill: rgb(183, 20, 132); stroke-width: 1;"></circle><circle cx="201.26666666666668" cy="316.2" r="3.55" style="stroke: rgb(0, 0, 0); fill: rgb(240, 137, 168); stroke-width: 1;"></circle><circle cx="115.98333333333335" cy="179.71666666666667" r="3.55" style="stroke: rgb(0, 0, 0); fill: rgb(80, 95, 57); stroke-width: 1;"></circle><circle cx="102.33333333333333" cy="217.86666666666667" r="3.55" style="stroke: rgb(0, 0, 0); fill: rgb(115, 176, 162); stroke-width: 1; cursor: pointer;"></circle><circle cx="168.86666666666667" cy="159.36666666666667" r="3.55" style="stroke: rgb(0, 0, 0); fill: rgb(196, 230, 170); stroke-width: 1;"></circle><circle cx="272.9166666666667" cy="100.88333333333334" r="3.55" style="stroke: rgb(0, 0, 0); fill: rgb(80, 95, 57); stroke-width: 1;"></circle><circle cx="308.73333333333335" cy="160.21666666666667" r="3.55" style="stroke: rgb(0, 0, 0); fill: rgb(80, 95, 57); stroke-width: 1; cursor: pointer;"></circle><circle cx="248.68333333333337" cy="267.8833333333333" r="3.55" style="stroke: rgb(0, 0, 0); fill: rgb(161, 182, 41); stroke-width: 1; cursor: pointer;"></circle><circle cx="182.88333333333335" cy="150.05" r="3.55" style="stroke: rgb(0, 0, 0); fill: rgb(196, 230, 170); stroke-width: 1;"></circle><circle cx="206.8" cy="299.25000000000006" r="3.55" style="stroke: rgb(0, 0, 0); fill: rgb(183, 20, 132); stroke-width: 1;"></circle><circle cx="221.33333333333337" cy="189.9" r="3.55" style="stroke: rgb(0, 0, 0); fill: rgb(196, 230, 170); stroke-width: 1; cursor: pointer;"></circle><circle cx="175.18333333333334" cy="253.4666666666667" r="3.55" style="stroke: rgb(0, 0, 0); fill: rgb(183, 20, 132); stroke-width: 1;"></circle><circle cx="295.68333333333334" cy="177.18333333333334" r="3.55" style="stroke: rgb(0, 0, 0); fill: rgb(196, 230, 170); stroke-width: 1;"></circle><circle cx="254.65" cy="280.6" r="3.55" style="stroke: rgb(0, 0, 0); fill: rgb(183, 20, 132); stroke-width: 1;"></circle><circle cx="267.48333333333335" cy="111.9" r="3.55" style="stroke: rgb(0, 0, 0); fill: rgb(80, 95, 57); stroke-width: 1;"></circle><circle cx="224.75" cy="185.65" r="3.55" style="stroke: rgb(0, 0, 0); fill: rgb(196, 230, 170); stroke-width: 1;"></circle><circle cx="176.03333333333336" cy="289.0833333333333" r="3.55" style="stroke: rgb(0, 0, 0); fill: rgb(183, 20, 132); stroke-width: 1;"></circle><circle cx="70.06666666666666" cy="135.63333333333333" r="3.55" style="stroke: rgb(0, 0, 0); fill: rgb(80, 95, 57); stroke-width: 1;"></circle><circle cx="316.18333333333334" cy="204.3" r="3.55" style="stroke: rgb(0, 0, 0); fill: rgb(80, 95, 57); stroke-width: 1;"></circle><circle cx="199.11666666666667" cy="89.01666666666667" r="3.55" style="stroke: rgb(0, 0, 0); fill: rgb(80, 95, 57); stroke-width: 1;"></circle><circle cx="99.98333333333333" cy="158.53333333333336" r="3.55" style="stroke: rgb(0, 0, 0); fill: rgb(161, 182, 41); stroke-width: 1;"></circle><circle cx="207.65" cy="301.8" r="3.55" style="stroke: rgb(0, 0, 0); fill: rgb(183, 20, 132); stroke-width: 1;"></circle><circle cx="206.8" cy="311.1166666666667" r="3.55" style="stroke: rgb(0, 0, 0); fill: rgb(183, 20, 132); stroke-width: 1;"></circle><circle cx="254.65" cy="265.35" r="3.55" style="stroke: rgb(0, 0, 0); fill: rgb(183, 20, 132); stroke-width: 1;"></circle><circle cx="151.45000000000002" cy="160.21666666666667" r="3.55" style="stroke: rgb(0, 0, 0); fill: rgb(80, 95, 57); stroke-width: 1;"></circle><circle cx="188.66666666666669" cy="257.7166666666667" r="3.55" style="stroke: rgb(0, 0, 0); fill: rgb(183, 20, 132); stroke-width: 1;"></circle><circle cx="255.50000000000003" cy="261.95" r="3.55" style="stroke: rgb(0, 0, 0); fill: rgb(183, 20, 132); stroke-width: 1;"></circle><circle cx="291.8833333333333" cy="172.08333333333334" r="3.55" style="stroke: rgb(0, 0, 0); fill: rgb(196, 230, 170); stroke-width: 1;"></circle><circle cx="186.98333333333335" cy="268.73333333333335" r="3.55" style="stroke: rgb(0, 0, 0); fill: rgb(34, 8, 242); stroke-width: 1;"></circle><circle cx="133.68333333333334" cy="142.41666666666669" r="3.55" style="stroke: rgb(0, 0, 0); fill: rgb(80, 95, 57); stroke-width: 1;"></circle><circle cx="324.0333333333333" cy="183.11666666666667" r="3.55" style="stroke: rgb(0, 0, 0); fill: rgb(115, 176, 162); stroke-width: 1;"></circle><circle cx="281.73333333333335" cy="146.66666666666669" r="3.55" style="stroke: rgb(0, 0, 0); fill: rgb(80, 95, 57); stroke-width: 1;"></circle><circle cx="190.36666666666667" cy="267.03333333333336" r="3.55" style="stroke: rgb(0, 0, 0); fill: rgb(183, 20, 132); stroke-width: 1;"></circle><circle cx="252.96666666666667" cy="264.5" r="3.55" style="stroke: rgb(0, 0, 0); fill: rgb(222, 30, 36); stroke-width: 1;"></circle><circle cx="188.66666666666669" cy="264.5" r="3.55" style="stroke: rgb(0, 0, 0); fill: rgb(183, 20, 132); stroke-width: 1;"></circle><circle cx="244.51666666666668" cy="295.8666666666667" r="3.55" style="stroke: rgb(0, 0, 0); fill: rgb(183, 20, 132); stroke-width: 1;"></circle><circle cx="142.98333333333335" cy="183.96666666666667" r="3.55" style="stroke: rgb(0, 0, 0); fill: rgb(196, 230, 170); stroke-width: 1;"></circle><circle cx="238.58333333333334" cy="250.08333333333337" r="3.55" style="stroke: rgb(0, 0, 0); fill: rgb(183, 20, 132); stroke-width: 1;"></circle><circle cx="181.05" cy="275.5166666666667" r="3.55" style="stroke: rgb(0, 0, 0); fill: rgb(183, 20, 132); stroke-width: 1;"></circle><circle cx="175.13333333333333" cy="281.45000000000005" r="3.55" style="stroke: rgb(0, 0, 0); fill: rgb(183, 20, 132); stroke-width: 1;"></circle><circle cx="115.91666666666667" cy="99.18333333333334" r="3.55" style="stroke: rgb(0, 0, 0); fill: rgb(115, 176, 162); stroke-width: 1;"></circle><circle cx="145.51666666666668" cy="153.43333333333334" r="3.55" style="stroke: rgb(0, 0, 0); fill: rgb(80, 95, 57); stroke-width: 1;"></circle><circle cx="199.66666666666666" cy="287.3833333333334" r="3.55" style="stroke: rgb(0, 0, 0); fill: rgb(196, 230, 170); stroke-width: 1;"></circle><circle cx="156.51666666666668" cy="200.0666666666667" r="3.55" style="stroke: rgb(0, 0, 0); fill: rgb(196, 230, 170); stroke-width: 1;"></circle><circle cx="274.96666666666664" cy="185.65" r="3.55" style="stroke: rgb(0, 0, 0); fill: rgb(196, 230, 170); stroke-width: 1; cursor: pointer;"></circle><circle cx="295.26666666666665" cy="192.43333333333334" r="3.55" style="stroke: rgb(0, 0, 0); fill: rgb(80, 95, 57); stroke-width: 1;"></circle><circle cx="104.91666666666667" cy="189.9" r="3.55" style="stroke: rgb(0, 0, 0); fill: rgb(196, 230, 170); stroke-width: 1;"></circle><circle cx="173.43333333333334" cy="282.3" r="3.55" style="stroke: rgb(0, 0, 0); fill: rgb(34, 8, 242); stroke-width: 1;"></circle><circle cx="230.13333333333335" cy="274.6666666666667" r="3.55" style="stroke: rgb(0, 0, 0); fill: rgb(222, 30, 36); stroke-width: 1;"></circle><circle cx="157.36666666666667" cy="183.11666666666667" r="3.55" style="stroke: rgb(0, 0, 0); fill: rgb(196, 230, 170); stroke-width: 1;"></circle><circle cx="142.98333333333335" cy="88.16666666666667" r="3.55" style="stroke: rgb(0, 0, 0); fill: rgb(115, 176, 162); stroke-width: 1; cursor: pointer;"></circle><circle cx="181.05" cy="268.73333333333335" r="3.55" style="stroke: rgb(0, 0, 0); fill: rgb(183, 20, 132); stroke-width: 1;"></circle><circle cx="221.66666666666669" cy="160.21666666666667" r="3.55" style="stroke: rgb(0, 0, 0); fill: rgb(196, 230, 170); stroke-width: 1;"></circle><circle cx="250.43333333333334" cy="260.25" r="3.55" style="stroke: rgb(0, 0, 0); fill: rgb(34, 8, 242); stroke-width: 1;"></circle><circle cx="241.9666666666667" cy="271.28333333333336" r="3.55" style="stroke: rgb(0, 0, 0); fill: rgb(34, 8, 242); stroke-width: 1; cursor: pointer;"></circle><circle cx="175.98333333333335" cy="258.56666666666666" r="3.55" style="stroke: rgb(0, 0, 0); fill: rgb(183, 20, 132); stroke-width: 1;"></circle><circle cx="253.13333333333333" cy="180.5666666666667" r="3.55" style="stroke: rgb(0, 0, 0); fill: rgb(196, 230, 170); stroke-width: 1;"></circle><circle cx="282.0166666666667" cy="214.48333333333335" r="3.55" style="stroke: rgb(0, 0, 0); fill: rgb(196, 230, 170); stroke-width: 1;"></circle><circle cx="163.08333333333334" cy="150.05" r="3.55" style="stroke: rgb(0, 0, 0); fill: rgb(80, 95, 57); stroke-width: 1;"></circle><circle cx="234.45" cy="345.03333333333336" r="3.55" style="stroke: rgb(0, 0, 0); fill: rgb(222, 30, 36); stroke-width: 1;"></circle><circle cx="167.33333333333334" cy="284.83333333333337" r="3.55" style="stroke: rgb(0, 0, 0); fill: rgb(183, 20, 132); stroke-width: 1; cursor: pointer;"></circle><circle cx="178.38333333333335" cy="267.03333333333336" r="3.55" style="stroke: rgb(0, 0, 0); fill: rgb(183, 20, 132); stroke-width: 1;"></circle><circle cx="188.56666666666666" cy="255.16666666666666" r="3.55" style="stroke: rgb(0, 0, 0); fill: rgb(183, 20, 132); stroke-width: 1;"></circle><circle cx="171.58333333333334" cy="281.45000000000005" r="3.55" style="stroke: rgb(0, 0, 0); fill: rgb(183, 20, 132); stroke-width: 1;"></circle><circle cx="174.13333333333335" cy="282.3" r="3.55" style="stroke: rgb(0, 0, 0); fill: rgb(183, 20, 132); stroke-width: 1;"></circle><circle cx="251.43333333333337" cy="257.7166666666667" r="3.55" style="stroke: rgb(0, 0, 0); fill: rgb(183, 20, 132); stroke-width: 1;"></circle><circle cx="303.25" cy="112.75000000000001" r="3.55" style="stroke: rgb(0, 0, 0); fill: rgb(161, 182, 41); stroke-width: 1;"></circle><circle cx="166.48333333333335" cy="278.90000000000003" r="3.55" style="stroke: rgb(0, 0, 0); fill: rgb(183, 20, 132); stroke-width: 1;"></circle><circle cx="183.48333333333335" cy="261.1" r="3.55" style="stroke: rgb(0, 0, 0); fill: rgb(183, 20, 132); stroke-width: 1;"></circle><circle cx="286.26666666666665" cy="281.45000000000005" r="3.55" style="stroke: rgb(0, 0, 0); fill: rgb(222, 30, 36); stroke-width: 1;"></circle><circle cx="276.06666666666666" cy="263.65000000000003" r="3.55" style="stroke: rgb(0, 0, 0); fill: rgb(196, 230, 170); stroke-width: 1; cursor: pointer;"></circle><circle cx="203.9" cy="305.1833333333334" r="3.55" style="stroke: rgb(0, 0, 0); fill: rgb(196, 230, 170); stroke-width: 1;"></circle><circle cx="230.9666666666667" cy="260.25" r="3.55" style="stroke: rgb(0, 0, 0); fill: rgb(183, 20, 132); stroke-width: 1;"></circle><circle cx="179.36666666666667" cy="281.45000000000005" r="3.55" style="stroke: rgb(0, 0, 0); fill: rgb(183, 20, 132); stroke-width: 1;"></circle><circle cx="162.45000000000002" cy="81.38333333333334" r="3.55" style="stroke: rgb(0, 0, 0); fill: rgb(39, 169, 85); stroke-width: 1;"></circle><circle cx="186.13333333333335" cy="265.35" r="3.55" style="stroke: rgb(0, 0, 0); fill: rgb(183, 20, 132); stroke-width: 1;"></circle><circle cx="234.35000000000002" cy="258.56666666666666" r="3.55" style="stroke: rgb(0, 0, 0); fill: rgb(183, 20, 132); stroke-width: 1;"></circle><circle cx="176.8166666666667" cy="278.06666666666666" r="3.55" style="stroke: rgb(0, 0, 0); fill: rgb(161, 182, 41); stroke-width: 1;"></circle><circle cx="219.96666666666667" cy="306.03333333333336" r="3.55" style="stroke: rgb(0, 0, 0); fill: rgb(222, 30, 36); stroke-width: 1;"></circle><circle cx="232.66666666666666" cy="257.7166666666667" r="3.55" style="stroke: rgb(0, 0, 0); fill: rgb(161, 182, 41); stroke-width: 1;"></circle><circle cx="198.8166666666667" cy="139.88333333333335" r="3.55" style="stroke: rgb(0, 0, 0); fill: rgb(196, 230, 170); stroke-width: 1; cursor: pointer;"></circle><circle cx="156.51666666666668" cy="173.78333333333333" r="3.55" style="stroke: rgb(0, 0, 0); fill: rgb(196, 230, 170); stroke-width: 1; cursor: pointer;"></circle><circle cx="252.96666666666667" cy="36.45" r="3.55" style="stroke: rgb(0, 0, 0); fill: rgb(172, 38, 87); stroke-width: 1; cursor: pointer;"></circle><circle cx="278.35" cy="187.35" r="3.55" style="stroke: rgb(0, 0, 0); fill: rgb(80, 95, 57); stroke-width: 1;"></circle><circle cx="186.98333333333335" cy="264.5" r="3.55" style="stroke: rgb(0, 0, 0); fill: rgb(183, 20, 132); stroke-width: 1;"></circle><circle cx="119.3" cy="122.91666666666667" r="3.55" style="stroke: rgb(0, 0, 0); fill: rgb(80, 95, 57); stroke-width: 1;"></circle><circle cx="202.2" cy="305.1833333333334" r="3.55" style="stroke: rgb(0, 0, 0); fill: rgb(183, 20, 132); stroke-width: 1; cursor: pointer;"></circle><circle cx="129.45000000000002" cy="118.68333333333332" r="3.55" style="stroke: rgb(0, 0, 0); fill: rgb(115, 176, 162); stroke-width: 1;"></circle><circle cx="131.98333333333335" cy="220.41666666666669" r="3.55" style="stroke: rgb(0, 0, 0); fill: rgb(115, 176, 162); stroke-width: 1;"></circle><circle cx="90.9" cy="211.1" r="3.55" style="stroke: rgb(0, 0, 0); fill: rgb(115, 176, 162); stroke-width: 1;"></circle><circle cx="138.36666666666667" cy="79.80000000000001" r="3.55" style="stroke: rgb(0, 0, 0); fill: rgb(115, 176, 162); stroke-width: 1; cursor: pointer;"></circle><circle cx="173.73333333333332" cy="240.38333333333333" r="3.55" style="stroke: rgb(0, 0, 0); fill: rgb(183, 20, 132); stroke-width: 1;"></circle><circle cx="203.01666666666668" cy="157.5666666666667" r="3.55" style="stroke: rgb(0, 0, 0); fill: rgb(196, 230, 170); stroke-width: 1;"></circle><circle cx="194.93333333333334" cy="157.5666666666667" r="3.55" style="stroke: rgb(0, 0, 0); fill: rgb(196, 230, 170); stroke-width: 1;"></circle><circle cx="296.95" cy="224.23333333333332" r="3.55" style="stroke: rgb(0, 0, 0); fill: rgb(196, 230, 170); stroke-width: 1;"></circle><circle cx="221.20000000000002" cy="241.4" r="3.55" style="stroke: rgb(0, 0, 0); fill: rgb(34, 8, 242); stroke-width: 1; cursor: pointer;"></circle><circle cx="176.75" cy="276.75000000000006" r="3.55" style="stroke: rgb(0, 0, 0); fill: rgb(183, 20, 132); stroke-width: 1;"></circle><circle cx="267.6666666666667" cy="149.48333333333335" r="3.55" style="stroke: rgb(0, 0, 0); fill: rgb(196, 230, 170); stroke-width: 1;"></circle><circle cx="219.18333333333334" cy="152.51666666666668" r="3.55" style="stroke: rgb(0, 0, 0); fill: rgb(196, 230, 170); stroke-width: 1;"></circle><circle cx="174.73333333333335" cy="281.8" r="3.55" style="stroke: rgb(0, 0, 0); fill: rgb(183, 20, 132); stroke-width: 1;"></circle><circle cx="279.78333333333336" cy="158.58333333333334" r="3.55" style="stroke: rgb(0, 0, 0); fill: rgb(196, 230, 170); stroke-width: 1;"></circle><circle cx="312.1" cy="193.93333333333334" r="3.55" style="stroke: rgb(0, 0, 0); fill: rgb(196, 230, 170); stroke-width: 1;"></circle><circle cx="152.51666666666668" cy="279.78333333333336" r="3.55" style="stroke: rgb(0, 0, 0); fill: rgb(183, 20, 132); stroke-width: 1;"></circle><circle cx="144.43333333333334" cy="127.26666666666667" r="3.55" style="stroke: rgb(0, 0, 0); fill: rgb(80, 95, 57); stroke-width: 1;"></circle><circle cx="162.61666666666667" cy="280.78333333333336" r="3.55" style="stroke: rgb(0, 0, 0); fill: rgb(73, 69, 172); stroke-width: 1;"></circle><circle cx="260.5833333333333" cy="275.73333333333335" r="3.55" style="stroke: rgb(0, 0, 0); fill: rgb(161, 182, 41); stroke-width: 1;"></circle><circle cx="222.2" cy="233.3166666666667" r="3.55" style="stroke: rgb(0, 0, 0); fill: rgb(183, 20, 132); stroke-width: 1;"></circle><circle cx="266.65000000000003" cy="240.38333333333333" r="3.55" style="stroke: rgb(0, 0, 0); fill: rgb(183, 20, 132); stroke-width: 1;"></circle><circle cx="171.7" cy="247.46666666666667" r="3.55" style="stroke: rgb(0, 0, 0); fill: rgb(183, 20, 132); stroke-width: 1;"></circle><circle cx="308.06666666666666" cy="201" r="3.55" style="stroke: rgb(0, 0, 0); fill: rgb(196, 230, 170); stroke-width: 1;"></circle><circle cx="217.01666666666668" cy="237.36666666666665" r="3.55" style="stroke: rgb(0, 0, 0); fill: rgb(183, 20, 132); stroke-width: 1;"></circle><circle cx="180.5666666666667" cy="261.95" r="3.55" style="stroke: rgb(0, 0, 0); fill: rgb(183, 20, 132); stroke-width: 1;"></circle><circle cx="161.91666666666669" cy="206.85" r="3.55" style="stroke: rgb(0, 0, 0); fill: rgb(80, 95, 57); stroke-width: 1;"></circle><circle cx="183.11666666666667" cy="267.8833333333333" r="3.55" style="stroke: rgb(0, 0, 0); fill: rgb(183, 20, 132); stroke-width: 1;"></circle><circle cx="179.71666666666667" cy="294.1666666666667" r="3.55" style="stroke: rgb(0, 0, 0); fill: rgb(183, 20, 132); stroke-width: 1;"></circle><circle cx="139.88333333333335" cy="212.78333333333333" r="3.55" style="stroke: rgb(0, 0, 0); fill: rgb(196, 230, 170); stroke-width: 1; cursor: pointer;"></circle><circle cx="248.38333333333335" cy="256.8666666666667" r="3.55" style="stroke: rgb(0, 0, 0); fill: rgb(249, 216, 108); stroke-width: 1;"></circle><circle cx="278.06666666666666" cy="230.58333333333334" r="3.55" style="stroke: rgb(0, 0, 0); fill: rgb(196, 230, 170); stroke-width: 1;"></circle><circle cx="155.98333333333335" cy="311.1166666666667" r="3.55" style="stroke: rgb(0, 0, 0); fill: rgb(222, 30, 36); stroke-width: 1;"></circle><circle cx="142.41666666666669" cy="183.96666666666667" r="3.55" style="stroke: rgb(0, 0, 0); fill: rgb(161, 182, 41); stroke-width: 1; cursor: pointer;"></circle><circle cx="245" cy="108.51666666666667" r="3.55" style="stroke: rgb(0, 0, 0); fill: rgb(80, 95, 57); stroke-width: 1;"></circle><circle cx="179.71666666666667" cy="161.91666666666669" r="3.55" style="stroke: rgb(0, 0, 0); fill: rgb(80, 95, 57); stroke-width: 1;"></circle><circle cx="189.9" cy="305.1833333333334" r="3.55" style="stroke: rgb(0, 0, 0); fill: rgb(196, 230, 170); stroke-width: 1;"></circle><circle cx="287.3833333333334" cy="194.13333333333335" r="3.55" style="stroke: rgb(0, 0, 0); fill: rgb(196, 230, 170); stroke-width: 1;"></circle><circle cx="256.8666666666667" cy="261.95" r="3.55" style="stroke: rgb(0, 0, 0); fill: rgb(183, 20, 132); stroke-width: 1;"></circle><circle cx="128.01666666666668" cy="182.26666666666668" r="3.55" style="stroke: rgb(0, 0, 0); fill: rgb(196, 230, 170); stroke-width: 1; cursor: pointer;"></circle><circle cx="169.55" cy="206" r="3.55" style="stroke: rgb(0, 0, 0); fill: rgb(222, 30, 36); stroke-width: 1;"></circle><circle cx="169.55" cy="253.4666666666667" r="3.55" style="stroke: rgb(0, 0, 0); fill: rgb(183, 20, 132); stroke-width: 1;"></circle><circle cx="207.70000000000002" cy="322.1333333333333" r="3.55" style="stroke: rgb(0, 0, 0); fill: rgb(114, 44, 229); stroke-width: 1;"></circle><circle cx="222.95000000000002" cy="298.4" r="3.55" style="stroke: rgb(0, 0, 0); fill: rgb(183, 20, 132); stroke-width: 1;"></circle><circle cx="214.48333333333335" cy="325.53333333333336" r="3.55" style="stroke: rgb(0, 0, 0); fill: rgb(183, 20, 132); stroke-width: 1;"></circle><circle cx="201.36666666666667" cy="233.98333333333332" r="3.55" style="stroke: rgb(0, 0, 0); fill: rgb(183, 20, 132); stroke-width: 1; cursor: pointer;"></circle><circle cx="308.3" cy="180.41666666666669" r="3.55" style="stroke: rgb(0, 0, 0); fill: rgb(196, 230, 170); stroke-width: 1;"></circle><circle cx="150.76666666666665" cy="125.35" r="3.55" style="stroke: rgb(0, 0, 0); fill: rgb(80, 95, 57); stroke-width: 1;"></circle><circle cx="163.46666666666667" cy="276.1166666666667" r="3.55" style="stroke: rgb(0, 0, 0); fill: rgb(183, 20, 132); stroke-width: 1;"></circle><circle cx="107.56666666666668" cy="165.16666666666666" r="3.55" style="stroke: rgb(0, 0, 0); fill: rgb(80, 95, 57); stroke-width: 1;"></circle><circle cx="292.73333333333335" cy="173.78333333333333" r="3.55" style="stroke: rgb(0, 0, 0); fill: rgb(161, 182, 41); stroke-width: 1;"></circle><circle cx="314.73333333333335" cy="182.26666666666668" r="3.55" style="stroke: rgb(0, 0, 0); fill: rgb(196, 230, 170); stroke-width: 1;"></circle><circle cx="236.89999999999998" cy="245" r="3.55" style="stroke: rgb(0, 0, 0); fill: rgb(183, 20, 132); stroke-width: 1;"></circle><circle cx="257.2" cy="265.35" r="3.55" style="stroke: rgb(0, 0, 0); fill: rgb(183, 20, 132); stroke-width: 1;"></circle><circle cx="193.75" cy="116.13333333333335" r="3.55" style="stroke: rgb(0, 0, 0); fill: rgb(80, 95, 57); stroke-width: 1;"></circle><circle cx="16.916666666666668" cy="132.25" r="3.55" style="stroke: rgb(0, 0, 0); fill: rgb(172, 38, 87); stroke-width: 1; cursor: pointer;"></circle><circle cx="289.35" cy="193.28333333333333" r="3.55" style="stroke: rgb(0, 0, 0); fill: rgb(80, 95, 57); stroke-width: 1;"></circle><circle cx="333.35" cy="182.26666666666668" r="3.55" style="stroke: rgb(0, 0, 0); fill: rgb(80, 95, 57); stroke-width: 1;"></circle><circle cx="121.83333333333333" cy="105.96666666666667" r="3.55" style="stroke: rgb(0, 0, 0); fill: rgb(80, 95, 57); stroke-width: 1;"></circle><circle cx="298.65000000000003" cy="64.43333333333334" r="3.55" style="stroke: rgb(0, 0, 0); fill: rgb(161, 182, 41); stroke-width: 1; cursor: pointer;"></circle><circle cx="170.9" cy="128.85000000000002" r="3.55" style="stroke: rgb(0, 0, 0); fill: rgb(161, 182, 41); stroke-width: 1;"></circle><circle cx="135.36666666666667" cy="167" r="3.55" style="stroke: rgb(0, 0, 0); fill: rgb(80, 95, 57); stroke-width: 1;"></circle><circle cx="197.98333333333335" cy="119.53333333333333" r="3.55" style="stroke: rgb(0, 0, 0); fill: rgb(161, 182, 41); stroke-width: 1;"></circle><circle cx="214.28333333333333" cy="305.7666666666667" r="3.55" style="stroke: rgb(0, 0, 0); fill: rgb(183, 20, 132); stroke-width: 1;"></circle><circle cx="258.90000000000003" cy="270.43333333333334" r="3.55" style="stroke: rgb(0, 0, 0); fill: rgb(161, 182, 41); stroke-width: 1;"></circle><circle cx="238.85000000000002" cy="252.4" r="3.55" style="stroke: rgb(0, 0, 0); fill: rgb(183, 20, 132); stroke-width: 1;"></circle><circle cx="136.21666666666667" cy="136.48333333333335" r="3.55" style="stroke: rgb(0, 0, 0); fill: rgb(161, 182, 41); stroke-width: 1; cursor: pointer;"></circle><circle cx="58.45" cy="97.4" r="3.55" style="stroke: rgb(0, 0, 0); fill: rgb(172, 38, 87); stroke-width: 1; cursor: pointer;"></circle><circle cx="353.8833333333334" cy="183.01666666666668" r="3.55" style="stroke: rgb(0, 0, 0); fill: rgb(80, 95, 57); stroke-width: 1;"></circle><circle cx="232.55" cy="251.76666666666668" r="3.55" style="stroke: rgb(0, 0, 0); fill: rgb(183, 20, 132); stroke-width: 1;"></circle><circle cx="251.76666666666668" cy="252.78333333333333" r="3.55" style="stroke: rgb(0, 0, 0); fill: rgb(183, 20, 132); stroke-width: 1;"></circle><circle cx="178.96666666666667" cy="244.68333333333334" r="3.55" style="stroke: rgb(0, 0, 0); fill: rgb(161, 182, 41); stroke-width: 1;"></circle><circle cx="161.78333333333333" cy="255.8166666666667" r="3.55" style="stroke: rgb(0, 0, 0); fill: rgb(183, 20, 132); stroke-width: 1;"></circle><circle cx="171.88333333333333" cy="276.03333333333336" r="3.55" style="stroke: rgb(0, 0, 0); fill: rgb(183, 20, 132); stroke-width: 1;"></circle><circle cx="139.53333333333333" cy="175.93333333333334" r="3.55" style="stroke: rgb(0, 0, 0); fill: rgb(196, 230, 170); stroke-width: 1; cursor: pointer;"></circle><circle cx="135.48333333333335" cy="169.86666666666667" r="3.55" style="stroke: rgb(0, 0, 0); fill: rgb(161, 182, 41); stroke-width: 1;"></circle><circle cx="252.78333333333333" cy="134.48333333333335" r="3.55" style="stroke: rgb(0, 0, 0); fill: rgb(80, 95, 57); stroke-width: 1;"></circle><circle cx="173.91666666666666" cy="276.03333333333336" r="3.55" style="stroke: rgb(0, 0, 0); fill: rgb(161, 182, 41); stroke-width: 1;"></circle><circle cx="182" cy="267.95000000000005" r="3.55" style="stroke: rgb(0, 0, 0); fill: rgb(183, 20, 132); stroke-width: 1;"></circle><circle cx="305.35" cy="186.05" r="3.55" style="stroke: rgb(0, 0, 0); fill: rgb(80, 95, 57); stroke-width: 1;"></circle><circle cx="206.26666666666668" cy="106.16666666666667" r="3.55" style="stroke: rgb(0, 0, 0); fill: rgb(80, 95, 57); stroke-width: 1;"></circle><text x="425" y="415" font-family="Roboto Condensed" style="font-size: 12.2333px; stroke: rgb(0, 0, 0); fill: rgb(0, 0, 0);">Bunt Groundout</text><text x="425" y="400" font-family="Roboto Condensed" style="font-size: 12.2333px; stroke: rgb(0, 0, 0); fill: rgb(0, 0, 0);">Double</text><text x="425" y="385" font-family="Roboto Condensed" style="font-size: 12.2333px; stroke: rgb(0, 0, 0); fill: rgb(0, 0, 0);">Field Error</text><text x="425" y="370" font-family="Roboto Condensed" style="font-size: 12.2333px; stroke: rgb(0, 0, 0); fill: rgb(0, 0, 0);">Flyout</text><text x="425" y="355" font-family="Roboto Condensed" style="font-size: 12.2333px; stroke: rgb(0, 0, 0); fill: rgb(0, 0, 0);">Forceout</text><text x="425" y="340" font-family="Roboto Condensed" style="font-size: 12.2333px; stroke: rgb(0, 0, 0); fill: rgb(0, 0, 0);">Grounded Into DP</text><text x="425" y="325" font-family="Roboto Condensed" style="font-size: 12.2333px; stroke: rgb(0, 0, 0); fill: rgb(0, 0, 0);">Groundout</text><text x="425" y="310" font-family="Roboto Condensed" style="font-size: 12.2333px; stroke: rgb(0, 0, 0); fill: rgb(0, 0, 0);">Home Run</text><text x="425" y="295" font-family="Roboto Condensed" style="font-size: 12.2333px; stroke: rgb(0, 0, 0); fill: rgb(0, 0, 0);">Lineout</text><text x="425" y="280" font-family="Roboto Condensed" style="font-size: 12.2333px; stroke: rgb(0, 0, 0); fill: rgb(0, 0, 0);">Pop Out</text><text x="425" y="265" font-family="Roboto Condensed" style="font-size: 12.2333px; stroke: rgb(0, 0, 0); fill: rgb(0, 0, 0);">Sac Bunt</text><text x="425" y="250" font-family="Roboto Condensed" style="font-size: 12.2333px; stroke: rgb(0, 0, 0); fill: rgb(0, 0, 0);">Single</text><text x="425" y="235" font-family="Roboto Condensed" style="font-size: 12.2333px; stroke: rgb(0, 0, 0); fill: rgb(0, 0, 0);">Triple</text><circle cx="417" cy="412" r="3.55" style="fill: rgb(114, 44, 229); stroke: rgb(0, 0, 0);"></circle><circle cx="417" cy="397" r="3.55" style="fill: rgb(115, 176, 162); stroke: rgb(0, 0, 0);"></circle><circle cx="417" cy="382" r="3.55" style="fill: rgb(249, 216, 108); stroke: rgb(0, 0, 0);"></circle><circle cx="417" cy="367" r="3.55" style="fill: rgb(80, 95, 57); stroke: rgb(0, 0, 0);"></circle><circle cx="417" cy="352" r="3.55" style="fill: rgb(73, 69, 172); stroke: rgb(0, 0, 0);"></circle><circle cx="417" cy="337" r="3.55" style="fill: rgb(34, 8, 242); stroke: rgb(0, 0, 0);"></circle><circle cx="417" cy="322" r="3.55" style="fill: rgb(183, 20, 132); stroke: rgb(0, 0, 0);"></circle><circle cx="417" cy="307" r="3.55" style="fill: rgb(172, 38, 87); stroke: rgb(0, 0, 0);"></circle><circle cx="417" cy="292" r="3.55" style="fill: rgb(161, 182, 41); stroke: rgb(0, 0, 0);"></circle><circle cx="417" cy="277" r="3.55" style="fill: rgb(222, 30, 36); stroke: rgb(0, 0, 0);"></circle><circle cx="417" cy="262" r="3.55" style="fill: rgb(240, 137, 168); stroke: rgb(0, 0, 0);"></circle><circle cx="417" cy="247" r="3.55" style="fill: rgb(196, 230, 170); stroke: rgb(0, 0, 0);"></circle><circle cx="417" cy="232" r="3.55" style="fill: rgb(39, 169, 85); stroke: rgb(0, 0, 0);"></circle><text x="5" y="404.76190476190476" font-family="Roboto Condensed" style="font-size: 12.2333px; stroke: rgb(0, 0, 0); fill: rgb(0, 0, 0);">Clayton Kershaw</text></svg>